<svg width="48" height="49" viewBox="0 0 48 49" fill="none" xmlns="http://www.w3.org/2000/svg">
<g clip-path="url(#clip0_3_301)">
<path d="M36.4954 32.4989H33.7581C32.7229 32.4989 32.411 31.7085 30.5553 29.9581C28.9336 28.4848 28.2486 28.3016 27.8384 28.3016C27.271 28.3016 27.1163 28.4486 27.1163 29.1847V31.505C27.1163 32.1325 26.9004 32.5 25.1611 32.5C23.4737 32.3931 21.8373 31.9099 20.3869 31.0902C18.9364 30.2704 17.7133 29.1375 16.8183 27.7849C14.694 25.2912 13.2154 22.3652 12.5 19.2389C12.5 18.8522 12.6559 18.5016 13.438 18.5016H16.173C16.8759 18.5016 17.129 18.7968 17.4049 19.4786C18.7328 23.1625 20.9987 26.367 21.9187 26.367C22.2714 26.367 22.4249 26.22 22.4249 25.3911V21.5964C22.3086 19.8653 21.3333 19.7194 21.3333 19.093C21.3457 18.9278 21.4259 18.7735 21.5569 18.6631C21.6879 18.5527 21.8595 18.4948 22.0351 18.5016H26.3342C26.922 18.5016 27.1163 18.7775 27.1163 19.4401V24.5623C27.1163 25.1152 27.3682 25.2984 27.5457 25.2984C27.8984 25.2984 28.1695 25.1152 28.816 24.5069C30.2013 22.9133 31.3335 21.1384 32.1771 19.2377C32.2631 19.0093 32.4261 18.8137 32.6412 18.681C32.8564 18.5482 33.1118 18.4856 33.3682 18.5028H36.1044C36.9249 18.5028 37.0988 18.8895 36.9249 19.4413C35.9294 21.5425 34.6981 23.5372 33.2519 25.3911C32.9568 25.8152 32.8393 26.0357 33.2519 26.5332C33.523 26.9199 34.4826 27.6752 35.1268 28.3932C36.0648 29.2752 36.8433 30.2951 37.4323 31.4122C37.6674 32.1314 37.2763 32.4989 36.4954 32.4989Z" fill="white"/>
</g>
<defs>
<clipPath id="clip0_3_301">
<rect width="27" height="24" fill="white" transform="translate(10.5 12.5)"/>
</clipPath>
</defs>
</svg>
