<svg width="24" height="25" viewBox="0 0 24 25" fill="none" xmlns="http://www.w3.org/2000/svg">
<path fill-rule="evenodd" clip-rule="evenodd" d="M3.43784 11.2633C9.07383 8.73103 12.8258 7.04844 14.7098 6.23213C20.0721 3.91648 21.1992 3.51666 21.9239 3.5C22.0849 3.5 22.4392 3.53332 22.6807 3.73323C22.8739 3.89982 22.9222 4.1164 22.9545 4.28299C22.9867 4.44958 23.0189 4.79943 22.9867 5.06598C22.6968 8.23125 21.4408 15.9112 20.7967 19.443C20.5229 20.9423 19.9915 21.4421 19.4762 21.4921C18.349 21.592 17.4956 20.7258 16.4167 19.9927C14.7098 18.8433 13.7597 18.1269 12.1012 16.9941C10.1849 15.6946 11.4248 14.9783 12.5198 13.8121C12.8097 13.5123 17.7532 8.84765 17.8499 8.43117C17.866 8.38119 17.866 8.18127 17.7532 8.08132C17.6405 7.98136 17.4795 8.01468 17.3507 8.048C17.1735 8.08132 14.4683 9.94716 9.20265 13.6289C8.42972 14.1786 7.73729 14.4452 7.10928 14.4285C6.41686 14.4119 5.09643 14.0287 4.09806 13.6955C2.89035 13.2957 1.92418 13.0791 2.00469 12.3794C2.053 12.0129 2.53608 11.6464 3.43784 11.2633Z" fill="white"/>
</svg>
